# xmcd CD database file
#
# Track frame offsets:
#	150
#	22517
#	41182
#	58700
#	85362
#	106057
#	129685
#	153335
#	180622
#	205375
#	217580
#	232967
#	251200
#	266710
#	287532
#	306392
#
# Disc length: 4252 seconds
#
# Revision: 4
# Processed by: cddbd v1.5.1PL2 Copyright (c) Steve Scherf et al.
# Submitted via: CDex 1.51
#
DISCID=dc109a10
DTITLE=Various Artist - Feeling The Blues  Volume 2
DYEAR=1994
DGENRE=
TTITLE0=The Vaugham Brothers - Tick Tock
TTITLE1=Muddy Waters - Baby, Please Don't Go
TTITLE2=Fleetwood Mac - Need Your Love So Bad
TTITLE3=Blood, Sweat and Tears - I Love You More Than You'll Ever Know
TTITLE4=The Allman Brothers Band - Let Me Ride
TTITLE5=Jonny Winter - Be Careful With A Fool
TTITLE6=Don And Dewey - It's A beautiful Day
TTITLE7=Steppenwolf - Mr Penny Pincher
TTITLE8=Wah Wah Watson - Love My Blues Away
TTITLE9=Chicken Shack - Tears In The Wind
TTITLE10=Moby Grape - Can't Be So bad
TTITLE11=Al Kooper and Mike Bloomfield - The weight
TTITLE12=Taj MahalTaj Mahal - Further On Down The Road
TTITLE13=Stevie Ray Vaughan and Double Trouble - The Sky Is Crying
TTITLE14=The Electric Flag - Killing Floor
TTITLE15=Lonnie Pitchford - Terraplane Blues
EXTD=YEAR: 1994
EXTT0=
EXTT1=
EXTT2=
EXTT3=
EXTT4=
EXTT5=
EXTT6=
EXTT7=
EXTT8=
EXTT9=
EXTT10=
EXTT11=
EXTT12=
EXTT13=
EXTT14=
EXTT15=
PLAYORDER=
